<svg xmlns="http://www.w3.org/2000/svg" xmlns:xlink="http://www.w3.org/1999/xlink" viewBox="0 0 150 138" width="329.690236698" height="303.315017762"><defs><style type="text/css">.a{mask:url(#a);filter:url(#s);}.b,.d{mix-blend-mode:multiply;}.b{fill:url(#c);}.c{mask:url(#d);filter:url(#v);}.d{fill:url(#f);}.e{fill:red;}.f{fill:url(#g);}.g{fill:url(#h);}.h{fill:url(#i);}.i{fill:url(#j);}.j{fill:url(#k);}.k{fill:url(#l);}.l{fill:url(#m);}.m{fill:url(#n);}.n{fill:url(#o);}.o{fill:url(#p);}.p{fill:url(#q);}.q{mask:url(#r);}.r{fill:url(#t);}.s{mask:url(#u);}.t{fill:url(#w);}.u{fill:url(#x);}.v{fill:url(#y);}.w{fill:url(#z);}.x{fill:url(#aa);}.y{fill:url(#ab);}.z{fill:url(#ac);}.aa{fill:url(#ad);}.ab{fill:url(#ae);}.ac{filter:url(#e);}.ad{filter:url(#b);}</style><filter id="b" x="71.85" y="-8260.65" width="6.3" height="32766" filterUnits="userSpaceOnUse" color-interpolation-filters="sRGB"><feFlood flood-color="#fff" result="bg"/><feBlend in="SourceGraphic" in2="bg"/></filter><mask id="a" x="71.85" y="-8260.65" width="6.3" height="32766" maskUnits="userSpaceOnUse"><g class="ad"/></mask><linearGradient id="c" x1="75" y1="7.93" x2="75" y2="0.67" gradientUnits="userSpaceOnUse"><stop offset="0"/><stop offset="0.05" stop-color="#1e1e1e"/><stop offset="0.17" stop-color="#616161"/><stop offset="0.28" stop-color="#999"/><stop offset="0.38" stop-color="#c5c5c5"/><stop offset="0.47" stop-color="#e5e5e5"/><stop offset="0.55" stop-color="#f8f8f8"/><stop offset="0.6" stop-color="#fff"/><stop offset="1" stop-color="#fff"/></linearGradient><filter id="e" x="69.1" y="-8260.65" width="11.81" height="32766" filterUnits="userSpaceOnUse" color-interpolation-filters="sRGB"><feFlood flood-color="#fff" result="bg"/><feBlend in="SourceGraphic" in2="bg"/></filter><mask id="d" x="69.1" y="-8260.65" width="11.81" height="32766" maskUnits="userSpaceOnUse"><g class="ac"/></mask><linearGradient id="f" x1="75" y1="0.67" x2="75" y2="73.77" gradientUnits="userSpaceOnUse"><stop offset="0.06" stop-color="#fff"/><stop offset="0.22" stop-color="#fff"/><stop offset="0.38" stop-color="#fff"/><stop offset="0.53" stop-color="#fff"/><stop offset="0.74" stop-color="#ccc"/><stop offset="0.75" stop-color="#cfcfcf"/><stop offset="0.8" stop-color="#eaeaea"/><stop offset="0.84" stop-color="#f9f9f9"/><stop offset="0.88" stop-color="#fff"/><stop offset="1" stop-color="#fff"/></linearGradient><linearGradient id="g" x1="75" y1="74.51" x2="75" gradientUnits="userSpaceOnUse"><stop offset="0" stop-color="#e4ac52"/><stop offset="0.04" stop-color="#4f361c"/><stop offset="0.09" stop-color="#614726"/><stop offset="0.44" stop-color="#4f361c"/><stop offset="0.67" stop-color="#e4ac52"/><stop offset="0.83" stop-color="#745124"/><stop offset="0.93" stop-color="#4f361c"/><stop offset="1" stop-color="#e4ac52"/></linearGradient><linearGradient id="h" x1="71.95" y1="25.83" x2="71.95" y2="4.34" gradientUnits="userSpaceOnUse"><stop offset="0.25" stop-color="#a57531"/><stop offset="0.79" stop-color="#fde489"/><stop offset="1" stop-color="#745124"/></linearGradient><linearGradient id="i" x1="70.45" y1="73.82" x2="70.45" y2="41.78" gradientUnits="userSpaceOnUse"><stop offset="0.1" stop-color="#4f361c"/><stop offset="0.29" stop-color="#fde489"/><stop offset="0.5" stop-color="#a57531"/><stop offset="0.67" stop-color="#e4ac52"/><stop offset="0.84" stop-color="#745124"/></linearGradient><linearGradient id="j" x1="79.55" y1="73.82" x2="79.55" y2="41.78" gradientUnits="userSpaceOnUse"><stop offset="0.1" stop-color="#4f361c"/><stop offset="0.31" stop-color="#a57531"/><stop offset="0.61" stop-color="#fde489"/><stop offset="0.81" stop-color="#e4ac52"/><stop offset="0.97" stop-color="#745124"/></linearGradient><linearGradient id="k" x1="78.05" y1="25.83" x2="78.05" y2="4.34" gradientUnits="userSpaceOnUse"><stop offset="0.12" stop-color="#a57531"/><stop offset="0.49" stop-color="#fde489"/><stop offset="0.97" stop-color="#745124"/></linearGradient><linearGradient id="l" x1="63.39" y1="74.51" x2="63.39" y2="2.79" gradientUnits="userSpaceOnUse"><stop offset="0" stop-color="#745124"/><stop offset="0.25" stop-color="#745124"/><stop offset="0.5" stop-color="#e4ac52"/><stop offset="0.75" stop-color="#745124"/><stop offset="1" stop-color="#e4ac52"/></linearGradient><linearGradient id="m" x1="63.19" y1="73.68" x2="63.19" y2="3.72" gradientUnits="userSpaceOnUse"><stop offset="0.13" stop-color="#4f361c"/><stop offset="0.67" stop-color="#e4ac52"/><stop offset="0.9" stop-color="#4f361c"/></linearGradient><linearGradient id="n" x1="65.83" y1="74.6" x2="65.83" y2="2.72" gradientUnits="userSpaceOnUse"><stop offset="0" stop-color="#fde489"/><stop offset="0.11" stop-color="#fae187"/><stop offset="0.2" stop-color="#f0d781"/><stop offset="0.28" stop-color="#dfc676"/><stop offset="0.36" stop-color="#c7ae67"/><stop offset="0.43" stop-color="#a88f54"/><stop offset="0.5" stop-color="#836a3c"/><stop offset="0.57" stop-color="#573e21"/><stop offset="0.58" stop-color="#4f361c"/><stop offset="0.61" stop-color="#5b4223"/><stop offset="0.65" stop-color="#7a6137"/><stop offset="0.71" stop-color="#ac9356"/><stop offset="0.78" stop-color="#f1d881"/><stop offset="0.79" stop-color="#fde489"/><stop offset="0.93" stop-color="#876e3f"/><stop offset="1" stop-color="#4f361c"/></linearGradient><linearGradient id="o" x1="54.42" y1="74.51" x2="54.42" y2="8.17" gradientUnits="userSpaceOnUse"><stop offset="0" stop-color="#4f361c"/><stop offset="0.25" stop-color="#745124"/><stop offset="0.58" stop-color="#e4ac52"/><stop offset="0.88" stop-color="#745124"/><stop offset="1" stop-color="#e4ac52"/></linearGradient><linearGradient id="p" x1="54.59" y1="73.68" x2="54.59" y2="9.4" gradientUnits="userSpaceOnUse"><stop offset="0.25" stop-color="#4b331a"/><stop offset="0.5" stop-color="#a57531"/><stop offset="0.75" stop-color="#4f361c"/></linearGradient><linearGradient id="q" x1="57.72" y1="74.58" x2="57.72" y2="9.32" gradientUnits="userSpaceOnUse"><stop offset="0" stop-color="#4f361c"/><stop offset="0.07" stop-color="#765d34"/><stop offset="0.18" stop-color="#a68d52"/><stop offset="0.27" stop-color="#ccb36a"/><stop offset="0.36" stop-color="#e7ce7b"/><stop offset="0.44" stop-color="#f7de85"/><stop offset="0.5" stop-color="#fde489"/><stop offset="0.6" stop-color="#fae187"/><stop offset="0.67" stop-color="#f0d781"/><stop offset="0.74" stop-color="#dfc676"/><stop offset="0.81" stop-color="#c7ae67"/><stop offset="0.87" stop-color="#a88f54"/><stop offset="0.93" stop-color="#836a3c"/><stop offset="0.99" stop-color="#573e21"/><stop offset="1" stop-color="#4f361c"/></linearGradient><filter id="s" x="71.85" y="0.67" width="6.3" height="7.25" filterUnits="userSpaceOnUse" color-interpolation-filters="sRGB"><feFlood flood-color="#fff" result="bg"/><feBlend in="SourceGraphic" in2="bg"/></filter><mask id="r" x="71.85" y="0.67" width="6.3" height="7.25" maskUnits="userSpaceOnUse"><g class="a"><path class="b" d="M71.8.9c0,.9,0,2.1,0,3.5V7.9h6.1V4.3c0-1.4,0-2.6,0-3.5L75,.7Z"/></g></mask><linearGradient id="t" x1="75" y1="7.93" x2="75" y2="0.67" gradientUnits="userSpaceOnUse"><stop offset="0" stop-color="#4f361c"/><stop offset="0.14" stop-color="#5b3a1f"/><stop offset="0.41" stop-color="#6e4123"/><stop offset="0.6" stop-color="#754324"/><stop offset="1" stop-color="#4f361c"/></linearGradient><filter id="v" x="69.1" y="0.67" width="11.81" height="73.1" filterUnits="userSpaceOnUse" color-interpolation-filters="sRGB"><feFlood flood-color="#fff" result="bg"/><feBlend in="SourceGraphic" in2="bg"/></filter><mask id="u" x="69.1" y="0.67" width="11.81" height="73.1" maskUnits="userSpaceOnUse"><g class="c"><path class="d" d="M69.1,73.8c3.4-12.9,3-53.8,2.8-69.4,0-1.4,0-2.6,0-3.5L75,.7l3.2.2c0,.9,0,2.1,0,3.5-.2,15.6-.6,56.5,2.8,69.4L79,73.6v-.2h0l-.4-1h0V72h-.1l-.9-.3a2.9,2.9,0,0,1-1.7-2.8V66.6l-.2-.2h-.3a0,0,0,0,1,0-.1h.1a2.8,2.8,0,0,0,2.1-2v-.2h1a2.5,2.5,0,0,0,0-1.5h-1v-.4h-.1a2.8,2.8,0,0,0-2.1-1.8h-.1c0-.1,0-.3,0-.4l-.2-.5v-.2a.8.8,0,0,1,.1-.4V59h0l.7-.2h-.7a.2.2,0,0,0-.1-.2c-.1,0-.2.1-.2.2h-.1l-.3.2-.2.4c-.1.2-.1.4,0,.4s.1,0,.1-.1h0l.2-.3h.1c0,.3.1.4-.1.6h-.1v.3h0l-.3.3-.2.2c-.1.1-.1.2-.1.2a2.8,2.8,0,0,0-1.5,1.6h-.1v.4h-1a2.5,2.5,0,0,0,0,1.5h1V64a2.8,2.8,0,0,0,2.1,2h.1a0,0,0,0,1,0,.1h-.3l-.2.2v2.2a2.9,2.9,0,0,1-1.7,2.8l-.9.3h-.1v.4h0l-.4,1h0v.2ZM75,59.9h-.1l-.2.3-.6.5h.7l.2-.2h0l.2.2h.1a1.4,1.4,0,0,1,0-.3C75.3,60.1,75.1,60,75,59.9Z"/></g></mask><linearGradient id="w" x1="75" y1="0.67" x2="75" y2="73.77" gradientUnits="userSpaceOnUse"><stop offset="0.06" stop-color="#4f361c"/><stop offset="0.22" stop-color="#a57531"/><stop offset="0.25" stop-color="#ad7d36"/><stop offset="0.29" stop-color="#c39545"/><stop offset="0.35" stop-color="#e7ba5c"/><stop offset="0.38" stop-color="#fbcf69"/><stop offset="0.53" stop-color="#fbcf69"/><stop offset="0.74" stop-color="#e4ac52"/><stop offset="0.75" stop-color="#d29e4b"/><stop offset="0.78" stop-color="#a3793b"/><stop offset="0.81" stop-color="#7f5c2d"/><stop offset="0.83" stop-color="#644724"/><stop offset="0.86" stop-color="#553a1e"/><stop offset="0.88" stop-color="#4f361c"/><stop offset="1" stop-color="#734122"/></linearGradient><linearGradient id="x" x1="-55.85" y1="74.51" x2="-55.85" y2="2.79" gradientTransform="matrix(-1, 0, 0, 1, 30.76, 0)" xlink:href="#l"/><linearGradient id="y" x1="-56.05" y1="73.68" x2="-56.05" y2="3.72" gradientTransform="matrix(-1, 0, 0, 1, 30.76, 0)" xlink:href="#m"/><linearGradient id="z" x1="-53.41" y1="74.6" x2="-53.41" y2="2.72" gradientTransform="matrix(-1, 0, 0, 1, 30.76, 0)" xlink:href="#n"/><linearGradient id="aa" x1="-64.82" y1="74.51" x2="-64.82" y2="8.17" gradientTransform="matrix(-1, 0, 0, 1, 30.76, 0)" xlink:href="#o"/><linearGradient id="ab" x1="-64.66" y1="73.68" x2="-64.66" y2="9.4" gradientTransform="matrix(-1, 0, 0, 1, 30.76, 0)" xlink:href="#p"/><linearGradient id="ac" x1="-61.52" y1="74.58" x2="-61.52" y2="9.32" gradientTransform="matrix(-1, 0, 0, 1, 30.76, 0)" xlink:href="#q"/><linearGradient id="ad" x1="70.36" y1="67.55" x2="74.61" y2="67.55" gradientUnits="userSpaceOnUse"><stop offset="0" stop-color="#4f361c"/><stop offset="0.29" stop-color="#fde489"/><stop offset="0.5" stop-color="#a57531"/><stop offset="0.67" stop-color="#e4ac52"/><stop offset="0.84" stop-color="#745124"/></linearGradient><linearGradient id="ae" x1="77.49" y1="74.56" x2="77.49" y2="60.16" gradientUnits="userSpaceOnUse"><stop offset="0" stop-color="#e4ac52"/><stop offset="0.16" stop-color="#745124"/><stop offset="0.5" stop-color="#a57531"/><stop offset="0.71" stop-color="#fde489"/><stop offset="0.9" stop-color="#4f361c"/></linearGradient></defs><title>logo-libertadores2</title><path d="M69.2,136.4h-.7c-1.6,0-1.4-.5-.7-3s1.1-3.2,2.1-3.2,1,.6.7,1.4H73c.4-1.5.1-2.8-2.7-2.8s-4,.7-5,4.5-.6,4.6,2.7,4.6a14.9,14.9,0,0,0,3.2-.3l1.1-4.2H70Zm7.4-5.3a.8.8,0,0,1,.9-.7h2.6l.4-1.4H76.7c-1.5,0-2,.3-2.6,2.6L73,135.9c-.3,1.4.1,2,1.3,2h3.2a1.2,1.2,0,0,0,1.2-.9l.3-.7H75.7c-.3,0-.4-.1-.4-.3l.5-2.1h3.2l.4-1.4H76.3Zm37.5-.7h2.6l.4-1.4h-3.7c-1.5,0-2,.3-2.6,2.6l-1.1,4.3c-.3,1.4.1,2,1.2,2h3.2a1.2,1.2,0,0,0,1.2-.9l.3-.7h-3.2c-.3,0-.4-.1-.4-.3l.5-2.1h3.2l.4-1.4h-3.2l.4-1.4A.8.8,0,0,1,114.2,130.4ZM61.7,129H58.5l-2.2,8.6a.2.2,0,0,0,.2.3h2.9c3.6,0,4.2-.7,5.2-4.5S64.8,129,61.7,129Zm.3,4.4c-.7,2.6-1.1,3-2.4,3H59l1.5-6h.8C62.7,130.4,62.7,130.9,62,133.4Zm44.5-4.4h-3.2l-2.2,8.6a.2.2,0,0,0,.2.3h2.1l1.9-7.5h.8c1,0,1.2.4.9,1.4l-1.5,5.8a.2.2,0,0,0,.2.3h2.1l1.6-6.1C110,129.7,109.1,129,106.5,129Zm-11.9.6.2-.6H88l-.4,1.4H90s0,0,0,0a2,2,0,0,0-.7,1.1l-1.6,6a.2.2,0,0,0,.2.3h2.3l1.9-7.5h1.2A1.2,1.2,0,0,0,94.6,129.6ZM56.6,129H54.4l-2.2,8.6a.2.2,0,0,0,.2.3h2.3l2.2-8.6A.2.2,0,0,0,56.6,129Zm41.9-.1c-2.7,0-3.9.5-4.9,4.6s-.2,4.6,2.6,4.6,3.9-.6,4.9-4.6S101.7,128.9,98.5,128.9Zm.1,4.5c-.7,2.5-1.3,3.2-2.1,3.2s-1.2-.4-.5-3.2,1.2-3.1,2.1-3.1S99.3,130.8,98.6,133.4Zm-56.9-1a2.8,2.8,0,0,0,2.5-2.2c.4-1.7-.9-2.6-2.4-2.5l-2.3,8a1.1,1.1,0,0,1-1,.8h-.9l1.4-4.8h-.1a51.5,51.5,0,0,0-6,6.2.1.1,0,0,0,0,.1h6c2.5,0,3.9-.8,4.4-2.6a2.1,2.1,0,0,0-1.7-2.8S41.6,132.4,41.7,132.4Zm10.7-.8c.4-1.4-.5-2.6-2.8-2.6H46.1l-2.2,8.6a.2.2,0,0,0,.2.3h2.1l1.9-7.5H49c.8,0,1.1.5,1,1.2a1.8,1.8,0,0,1-1.8,1.4h-.3l.9,4.3a.7.7,0,0,0,.8.6h1.9l-.8-3.6a1.8,1.8,0,0,0-.3-.6s0,0,0-.1A2.7,2.7,0,0,0,52.4,131.6Zm32-2.8c-2.1,0-3.3.8-3.7,2.4a2.4,2.4,0,0,0,.2,1.6c.6,1,2.1,1.1,3,1.7a.8.8,0,0,1,.3,1,1.2,1.2,0,0,1-1.3,1.1c-.7,0-1.1-.4-.7-1.7H79.8c-.9,2.2.3,3.2,2.7,3.2s3.4-.5,3.9-2.5a2.1,2.1,0,0,0-.4-1.9c-.8-.9-2.4-1.1-3-1.6a.9.9,0,0,1-.2-1,1.1,1.1,0,0,1,1.2-.9c1,0,1,.6.8,1.3H87C87.5,130,86.9,128.8,84.4,128.8Z"/><path class="e" d="M34.3,133.5l1.4-4.9a1.4,1.4,0,0,1,1.3-1h4.3a.1.1,0,0,1,0,.1,47.7,47.7,0,0,0-6.8,5.8Z"/><path d="M3.5,113.8V102l-1.7-.2L0,102v14.9H9.6a7.1,7.1,0,0,0,.2-1.6,7.3,7.3,0,0,0-.2-1.6ZM12,102v14.9h3.5V102H12Zm15,7.3a3.2,3.2,0,0,0,1.9-3.2c0-2.7-1.7-4.3-5.9-4.3a25,25,0,0,0-4.8.5v14.7a27.3,27.3,0,0,0,4.9.4c4.6,0,6.5-1.8,6.5-4.6A3.5,3.5,0,0,0,27,109.3Zm-5.4-4.7h1.6c1.5,0,2.3.6,2.3,1.7s-.6,1.8-2.1,1.8H21.6Zm1.8,9.9H21.6v-3.7h2c1.7,0,2.5.7,2.5,1.9S25.3,114.5,23.4,114.5Zm11-.7v-3h5.7a6.7,6.7,0,0,0,.2-1.5,6.9,6.9,0,0,0-.2-1.5H34.5v-2.7h6.4a5.8,5.8,0,0,0,.2-1.5,5.8,5.8,0,0,0-.2-1.6H31v14.9H41.1a7.1,7.1,0,0,0,.2-1.6,6.9,6.9,0,0,0-.2-1.5Zm20.5-7.3c0-2.9-1.9-4.8-6.4-4.8a26.7,26.7,0,0,0-5,.5v14.7H47v-5.2h1.9l3.1,5.2h.9a12.4,12.4,0,0,0,2.9-.3L52.3,111A4.8,4.8,0,0,0,54.9,106.5Zm-6.1,2.4H47v-4.2h1.8c1.7,0,2.6.8,2.6,2.1S50.6,108.9,48.8,108.9Zm19.2-5.4a5.8,5.8,0,0,0-.2-1.5h-12a7,7,0,0,0-.2,1.6,7,7,0,0,0,.2,1.5h4.3v11.8l1.7.2,1.7-.2V105.1h4.2A6.1,6.1,0,0,0,68.1,103.5Zm5.2-1.7H71.4l-5.6,14.8a5.6,5.6,0,0,0,1.8.3h1.6l3.4-9.3.4-1.4.5,1.4,1.3,3.4H72.7a6,6,0,0,0-.6,1.5,6.7,6.7,0,0,0-.3,1.4h4.1l1.1,3h1.3l2.2-.3L74.9,102Zm13.3-.2a27.3,27.3,0,0,0-4.8.4v14.8a34.4,34.4,0,0,0,4.9.3c5.1,0,8.5-3,8.5-7.9S92,101.7,86.5,101.7Zm.3,12.3H85.2V105h1.5c3,0,4.6,1.7,4.6,4.4S89.6,113.9,86.8,113.9Zm17.4-12.5a7.9,7.9,0,1,0,7.8,7.9A7.6,7.6,0,0,0,104.2,101.5Zm0,12.6c-2.5,0-4.1-1.8-4.1-4.6s1.6-4.7,4.1-4.7,4.1,1.8,4.1,4.7S106.6,114,104.2,114Zm20.5-7.5c0-2.9-1.9-4.8-6.4-4.8a26.7,26.7,0,0,0-5,.5v14.7h3.5v-5.2h1.9l3.1,5.2h.9a12.4,12.4,0,0,0,2.9-.3L122,111A4.8,4.8,0,0,0,124.6,106.5Zm-6.1,2.4h-1.8v-4.2h1.8c1.7,0,2.6.8,2.6,2.1S120.4,108.9,118.6,108.9Zm11.8,4.9v-3h5.7a6.7,6.7,0,0,0,.2-1.5,6.9,6.9,0,0,0-.2-1.5h-5.7v-2.7h6.4a5.8,5.8,0,0,0,.2-1.5,5.8,5.8,0,0,0-.2-1.6h-9.9v14.9H137a7.1,7.1,0,0,0,.2-1.6,6.9,6.9,0,0,0-.2-1.5Zm14.9-6.1c-2.7-.7-3-1-3-1.7s.7-1.2,2.1-1.2a6.6,6.6,0,0,1,3.8,1.2,3.6,3.6,0,0,0,1.6-2.8,8.4,8.4,0,0,0-5.2-1.5c-3.4,0-5.7,1.8-5.7,4.7s2.2,4,4.7,4.6,3,1.1,3,1.9-.7,1.3-2.3,1.3a7,7,0,0,1-4.3-1.4,3.7,3.7,0,0,0-1.6,2.8,8.7,8.7,0,0,0,5.8,1.8c3.6,0,5.8-1.8,5.8-5S148,108.4,145.3,107.7Z"/><path d="M54.4,86l-.8-.5a2.8,2.8,0,0,0-2,0l-.8.5a2.3,2.3,0,0,0-.5.8,2.7,2.7,0,0,0-.2,1v5.7a2.8,2.8,0,0,0,.2,1.2,2.3,2.3,0,0,0,.6.8l.8.4h.9l1-.2.8-.5a2.5,2.5,0,0,0,.5-.8,2.5,2.5,0,0,0,.2-1v-.6H53.4v.5a1.2,1.2,0,0,1-.1.5l-.2.3h-.5a.7.7,0,0,1-.6-.3,1.3,1.3,0,0,1-.2-.7V88.1a1.7,1.7,0,0,1,.2-.8.6.6,0,0,1,.6-.3.7.7,0,0,1,.6.3,1.1,1.1,0,0,1,.2.7v.5h1.7v-.6a2.8,2.8,0,0,0-.2-1A2.5,2.5,0,0,0,54.4,86Zm6.2-.1-.8-.5a2.7,2.7,0,0,0-1.9,0l-.8.5a2.4,2.4,0,0,0-.6.8,2.8,2.8,0,0,0-.2,1.2v5.5a2.8,2.8,0,0,0,.2,1.2,2.4,2.4,0,0,0,.6.8l.8.5.9.2.9-.2.8-.5a2.4,2.4,0,0,0,.6-.8,2.8,2.8,0,0,0,.2-1.2V87.9a2.8,2.8,0,0,0-.2-1.2A2.4,2.4,0,0,0,60.6,85.9Zm-.9,7.5a.9.9,0,0,1-.3.7l-.6.2-.6-.2a.9.9,0,0,1-.3-.7V87.9a.9.9,0,0,1,.3-.7l.6-.2.6.2a.9.9,0,0,1,.3.7Zm8.5-8H66.7v5.1a.1.1,0,0,1-.2,0l-1.9-5.2H63V95.8h1.7V90.7a.1.1,0,0,1,.2,0l1.9,5.2h1.6V85.5Zm8.4,0H75.1l-1.7,5h-.2l-1.7-5H69.9V95.8h1.7V90.7a.1.1,0,0,1,.2,0L72.9,94h.9l1.1-3.4a.1.1,0,0,1,.2,0v5.1h1.7V85.5Zm6.2,0H78.3V95.8H83V94.4H80V91.5h2.6V89.9H80V87.1H83V85.5Zm5.7.8-.9-.6-1.3-.2H84.2V95.8h2.1a2.9,2.9,0,0,0,2.2-.8,3.1,3.1,0,0,0,.7-2.2v-.6a3,3,0,0,0-.3-1.4,1.7,1.7,0,0,0-.6-.7l.3-.2.3-.4.2-.5a3.4,3.4,0,0,0,.1-.7v-.4a3.6,3.6,0,0,0-.1-1A2.3,2.3,0,0,0,88.6,86.2Zm-1,7.1a1.3,1.3,0,0,1-.1.5l-.3.3H85.9V91.2H87l.3.3a1,1,0,0,1,.2.4,4.6,4.6,0,0,1,0,.7C87.6,92.9,87.6,93.1,87.5,93.3Zm-.2-4a1,1,0,0,1-.9.3h-.6V87.1h.5a1.2,1.2,0,0,1,.9.3,1.5,1.5,0,0,1,.3,1A1.8,1.8,0,0,1,87.3,89.3Zm7.4-3.4-.8-.5a2.7,2.7,0,0,0-1.9,0l-.8.5a2.4,2.4,0,0,0-.6.8,2.8,2.8,0,0,0-.2,1.2v5.5a2.8,2.8,0,0,0,.2,1.2,2.4,2.4,0,0,0,.6.8l.8.5.9.2.9-.2.8-.5a2.4,2.4,0,0,0,.6-.8,2.8,2.8,0,0,0,.2-1.2V87.9a2.8,2.8,0,0,0-.2-1.2A2.4,2.4,0,0,0,94.7,85.9Zm-.9,7.5a.9.9,0,0,1-.3.7l-.6.2-.6-.2a.9.9,0,0,1-.3-.7V87.9a.9.9,0,0,1,.3-.7L93,87l.6.2a.9.9,0,0,1,.3.7Zm7.4.9H98.4V85.5H96.7V95.8h4.6V94.4Zm4.9-4.4h-2.9l-.2.2v1.4l.2.2h2.9l.2-.2V90Zm-59.3,0H43.9l-.2.2v1.4l.2.2h2.9l.2-.2V90Z"/><path class="f" d="M75.2,60.2a1.4,1.4,0,0,0,0,.3h-.1l-.2-.2h0l-.2.2h-.7l.6-.5.2-.3H75C75.1,60,75.3,60.1,75.2,60.2ZM70.4,74.5l.3-.4H71v-.5h0l.4-1h0V72h.1l.9-.3a2.9,2.9,0,0,0,1.7-2.8V66.6l.2-.2h.3a0,0,0,0,0,0-.1h-.1a2.8,2.8,0,0,1-2.1-2v-.2h-1a2.5,2.5,0,0,1,0-1.5h1v-.4h.1a2.8,2.8,0,0,1,1.5-1.6s0-.1.1-.2l.2-.2.3-.3h0v-.3h.1c.1-.2.1-.3.1-.6h-.1l-.2.3h0c0,.1,0,.2-.1.1s0-.2,0-.4l.2-.4.3-.2H75c0-.1.1-.2.2-.2a.2.2,0,0,1,.1.2H76l-.7.2h0v.2a.8.8,0,0,0-.1.4v.2l.2.5c0,.1,0,.3,0,.4h.1a2.8,2.8,0,0,1,2.1,1.8h.1v.4h1a2.5,2.5,0,0,1,0,1.5h-1V64a2.8,2.8,0,0,1-2.1,2h-.1a0,0,0,0,0,0,.1h.3l.2.2v2.2a2.9,2.9,0,0,0,1.7,2.8l.9.3h.1v.4h0l.4,1h0v.5h.2l.3.4h2.2c-4.1-13-3-64.8-3-74.2L75,0,71.2.3c.1,9.4,1.1,61.3-3,74.2Z"/><path class="g" d="M72,25.8v-.9c0-.6-.1-1.4-.1-2.4s-.1-2.2-.1-3.4V15.1c0-1.3,0-2.7,0-3.9s0-2.4,0-3.4,0-1.8,0-2.4v0c0,.6.1,1.4.1,2.4s.1,2.2.1,3.4v3.9c0,1.3,0,2.7,0,3.9s0,2.4,0,3.4,0,1.8,0,2.4Z"/><path class="h" d="M69.1,73.8l.3-1.4.3-1.6.3-2c.1-.7.2-1.6.3-2.4l.3-2.7c.1-.9.2-1.9.2-2.9s.1-2,.2-3,.3-4,.3-5.9l.3-5.1.2-5v1.4c0,.9,0,2.1,0,3.6s-.1,3.3-.2,5.1-.2,3.9-.3,5.9l-.2,3c-.1,1-.2,2-.3,2.9s-.2,1.8-.3,2.7-.2,1.7-.3,2.4-.2,1.4-.4,2l-.3,1.6-.3,1Z"/><path class="i" d="M78.2,41.8l.2,5,.3,5.1c.1,1.9.2,3.9.3,5.9s.1,2,.2,3,.2,2,.2,2.9l.3,2.7c.1.9.2,1.7.3,2.4l.3,2,.3,1.6.3,1.4v-.3l-.3-1-.3-1.6c-.1-.6-.3-1.3-.4-2s-.2-1.6-.3-2.4-.2-1.8-.3-2.7-.2-1.9-.3-2.9l-.2-3c-.1-2-.2-4-.3-5.9s-.1-3.6-.2-5.1,0-2.8,0-3.6Z"/><path class="j" d="M78.1,4.3v.9c0,.6,0,1.4,0,2.4s0,2.2,0,3.4V19c0,1.3-.1,2.4-.1,3.4s-.1,1.8-.1,2.4v0c0-.6,0-1.4,0-2.4s0-2.2,0-3.4,0-2.6,0-3.9V11.1c0-1.3.1-2.4.1-3.4s.1-1.8.1-2.4Z"/><path class="k" d="M57.5,74.5h6.8a117,117,0,0,0,5-34.4A115.1,115.1,0,0,0,63.4,2.8h-.1a25.7,25.7,0,0,0-4.3,2.8h0a84.1,84.1,0,0,1,6.3,32.7,82.5,82.5,0,0,1-7.9,36.1Z"/><path class="l" d="M63,3.7a10.4,10.4,0,0,0-3.9,1.9l.2.6h0a84.4,84.4,0,0,1,6.1,32.1,82.8,82.8,0,0,1-7.5,35.4h5.9a113.5,113.5,0,0,0,4.8-33.4C68.5,27,66.6,14.2,63,3.7Z"/><path class="m" d="M64.3,74.5l-.6-.8h0l.6-2.1.6-2.1q.5-2.2,1-4.3l.2-1.1.2-1.1.4-2.2c.2-1.5.5-2.9.7-4.4s.7-5.9.8-8.8.2-5.9.2-8.9c0-.7,0-1.5,0-2.2V34.2c-.1-1.5-.2-3-.3-4.4s-.3-2.9-.4-4.4l-.3-2.2L67,21l-.3-2.2-.4-2.2-.4-2.2-.5-2.2-.5-2.2L64.3,8l-.6-2.1L63,3.7h0l.4-.9-.4.9h0l.7,2.1.7,2.1.6,2.1.6,2.2.5,2.2.5,2.2.4,2.2.4,2.2.3,2.2.3,2.2c.2,1.5.3,2.9.4,4.4s.2,3,.3,4.4v2.2c0,.7,0,1.5,0,2.2q0,4.4-.2,8.9c-.2,3-.5,5.9-.9,8.8s-.4,2.9-.7,4.4l-.4,2.2L66.3,64,66,65.1l-.5,2.2L65,69.4l-.6,2.1-.6,2.1Z"/><path class="n" d="M45.5,74.5h7.6c6.4-9.4,10.3-22,10.3-35.8A66.4,66.4,0,0,0,56.3,8.2h-.1A25.8,25.8,0,0,0,53.9,11a.1.1,0,0,0,0,.1,52.4,52.4,0,0,1,6.9,26.3c0,15-5.2,30.5-15.4,37A0,0,0,0,0,45.5,74.5Z"/><path class="o" d="M56,9.4h0a11,11,0,0,0-2.1,1.7l.3.5a52.5,52.5,0,0,1,6.7,25.9c0,14.4-4.8,29.4-14.3,36.2h6.1c6.2-9.1,9.9-21.2,9.9-34.6C62.6,28.1,60.3,17.7,56,9.4Z"/><path class="p" d="M56,9.4c.6,1.2,1.3,2.5,1.8,3.8l.4,1,.4,1,.4,1,.3,1c.5,1.3.8,2.7,1.2,4l.5,2,.4,2.1.4,2.1c.1.7.2,1.4.3,2.1s.3,2.8.4,4.2.2,2.8.2,4.2,0,2.8,0,4.2a67.7,67.7,0,0,1-.9,8.4,62.7,62.7,0,0,1-1.9,8.2,59.4,59.4,0,0,1-3,7.8,51.9,51.9,0,0,1-4.2,7.3l.4.8-.4-.8h0a52.8,52.8,0,0,0,4.1-7.3,59.1,59.1,0,0,0,2.9-7.8,65.5,65.5,0,0,0,1.9-8.2q.3-2.1.5-4.2c.1-1.4.2-2.8.3-4.2s.1-2.8.1-4.2-.1-2.8-.2-4.2-.2-2.8-.4-4.2-.2-1.4-.3-2.1l-.3-2.1-.4-2.1-.5-2c-.3-1.4-.7-2.7-1.2-4l-.3-1-.4-1-.4-1-.4-1C57.2,11.9,56.6,10.7,56,9.4Z"/><g class="q"><path class="r" d="M71.8.9c0,.9,0,2.1,0,3.5V7.9h6.1V4.3c0-1.4,0-2.6,0-3.5L75,.7Z"/></g><g class="s"><path class="t" d="M69.1,73.8c3.4-12.9,3-53.8,2.8-69.4,0-1.4,0-2.6,0-3.5L75,.7l3.2.2c0,.9,0,2.1,0,3.5-.2,15.6-.6,56.5,2.8,69.4L79,73.6v-.2h0l-.4-1h0V72h-.1l-.9-.3a2.9,2.9,0,0,1-1.7-2.8V66.6l-.2-.2h-.3a0,0,0,0,1,0-.1h.1a2.8,2.8,0,0,0,2.1-2v-.2h1a2.5,2.5,0,0,0,0-1.5h-1v-.4h-.1a2.8,2.8,0,0,0-2.1-1.8h-.1c0-.1,0-.3,0-.4l-.2-.5v-.2a.8.8,0,0,1,.1-.4V59h0l.7-.2h-.7a.2.2,0,0,0-.1-.2c-.1,0-.2.1-.2.2h-.1l-.3.2-.2.4c-.1.2-.1.4,0,.4s.1,0,.1-.1h0l.2-.3h.1c0,.3.1.4-.1.6h-.1v.3h0l-.3.3-.2.2c-.1.1-.1.2-.1.2a2.8,2.8,0,0,0-1.5,1.6h-.1v.4h-1a2.5,2.5,0,0,0,0,1.5h1V64a2.8,2.8,0,0,0,2.1,2h.1a0,0,0,0,1,0,.1h-.3l-.2.2v2.2a2.9,2.9,0,0,1-1.7,2.8l-.9.3h-.1v.4h0l-.4,1h0v.2ZM75,59.9h-.1l-.2.3-.6.5h.7l.2-.2h0l.2.2h.1a1.4,1.4,0,0,1,0-.3C75.3,60.1,75.1,60,75,59.9Z"/></g><path class="u" d="M92.5,74.5H85.6a117,117,0,0,1-5-34.4A115.1,115.1,0,0,1,86.6,2.8h.1a25.7,25.7,0,0,1,4.3,2.8h0a84.1,84.1,0,0,0-6.3,32.7,82.5,82.5,0,0,0,7.9,36.1Z"/><path class="v" d="M87,3.7a10.4,10.4,0,0,1,3.9,1.9l-.2.6h0a84.4,84.4,0,0,0-6.1,32.1,82.8,82.8,0,0,0,7.5,35.4H86.3a113.5,113.5,0,0,1-4.8-33.4C81.5,27,83.4,14.2,87,3.7Z"/><path class="w" d="M85.7,74.5l.6-.8h0l-.6-2.1-.6-2.1q-.5-2.2-1-4.3L83.9,64l-.2-1.1-.4-2.2c-.2-1.5-.5-2.9-.7-4.4s-.7-5.9-.8-8.8-.2-5.9-.2-8.9c0-.7,0-1.5,0-2.2V34.2c.1-1.5.2-3,.3-4.4s.3-2.9.4-4.4l.3-2.2L83,21l.3-2.2.4-2.2.4-2.2.5-2.2.5-2.2L85.7,8l.6-2.1L87,3.7h0l-.4-.9.4.9h0l-.7,2.1-.7,2.1L85,10.1l-.6,2.2L84,14.4l-.5,2.2-.4,2.2-.4,2.2-.3,2.2-.3,2.2c-.2,1.5-.3,2.9-.4,4.4s-.2,3-.3,4.4v2.2c0,.7,0,1.5,0,2.2q0,4.4.2,8.9c.2,3,.5,5.9.9,8.8s.4,2.9.7,4.4l.4,2.2.2,1.1.2,1.1.5,2.2.6,2.1.6,2.1.6,2.1Z"/><path class="x" d="M104.5,74.5H96.9c-6.4-9.4-10.3-22-10.3-35.8A66.4,66.4,0,0,1,93.7,8.2h.1A25.8,25.8,0,0,1,96.1,11a.1.1,0,0,1,0,.1,52.4,52.4,0,0,0-6.9,26.3c0,15,5.2,30.5,15.4,37A0,0,0,0,1,104.5,74.5Z"/><path class="y" d="M94,9.4h0a11,11,0,0,1,2.1,1.7l-.3.5a52.5,52.5,0,0,0-6.7,25.9c0,14.4,4.8,29.4,14.3,36.2H97.3c-6.2-9.1-9.9-21.2-9.9-34.6C87.4,28.1,89.7,17.7,94,9.4Z"/><path class="z" d="M94,9.4c-.6,1.2-1.3,2.5-1.8,3.8l-.4,1-.4,1-.4,1-.3,1c-.5,1.3-.8,2.7-1.2,4l-.5,2-.4,2.1-.4,2.1c-.1.7-.2,1.4-.3,2.1s-.3,2.8-.4,4.2-.2,2.8-.2,4.2,0,2.8,0,4.2a67.7,67.7,0,0,0,.9,8.4,62.7,62.7,0,0,0,1.9,8.2,59.4,59.4,0,0,0,3,7.8,51.9,51.9,0,0,0,4.2,7.3l-.4.8.4-.8h0a52.8,52.8,0,0,1-4.1-7.3,59.1,59.1,0,0,1-2.9-7.8,65.5,65.5,0,0,1-1.9-8.2q-.3-2.1-.5-4.2c-.1-1.4-.2-2.8-.3-4.2s-.1-2.8-.1-4.2.1-2.8.2-4.2.2-2.8.4-4.2.2-1.4.3-2.1l.3-2.1.4-2.1.5-2c.3-1.4.7-2.7,1.2-4l.3-1,.4-1,.4-1,.4-1C92.8,11.9,93.4,10.7,94,9.4Z"/><path class="aa" d="M74.6,66.3h-.2l-.7-.3-.6-.4-.5-.6-.2-.3V64h0v-.2h-1a2.9,2.9,0,0,1-.1-.5,3.6,3.6,0,0,1,0-.5h1v-.4h.1a2.8,2.8,0,0,1,1.5-1.6h0a.1.1,0,0,1,0-.1h0a.1.1,0,0,0,0,.1,2.8,2.8,0,0,0-1.5,1.6h-.1v.4H71.1a3.7,3.7,0,0,0,0,.6,3,3,0,0,0,.1.6v.2h1v.6l.2.4.5.6.6.5.7.3h0a.5.5,0,0,0,0,.1H74v1.7a5.7,5.7,0,0,1-.1,1.3,3,3,0,0,1-.5,1.2,2.4,2.4,0,0,1-1,.8l-.6.2h-.4a.4.4,0,0,0,0,.1v.3h-.1v1.3c0,.1,0,.1,0,.2h-.4l-.2.3.2-.2.3-.2H71c0-.1,0-.1,0-.2v-.3h0V72h.3l.6-.2a2.5,2.5,0,0,0,1.1-.8,3,3,0,0,0,.6-1.2,5.8,5.8,0,0,0,.1-1.3V66.6h.5Z"/><path class="ab" d="M79.4,74.3H79c0-.1,0-.1,0-.2V72.4s0-.1,0-.2V72a.4.4,0,0,0,0-.1h-.4l-.6-.2-.6-.3-.5-.5a2.9,2.9,0,0,1-.5-1.2,5.7,5.7,0,0,1-.1-1.3V66.5h0l.4-.2.6-.5.5-.6.2-.4v-.6h1V64a3.2,3.2,0,0,0,0-.6,3,3,0,0,0-.1-.6v-.2h-1v-.4h-.1l-.3-.6-.5-.5a2.8,2.8,0,0,0-1.3-.6h-.1v0h.1a2.8,2.8,0,0,1,1.3.6l.5.5.3.6h.1v.4h1a3.2,3.2,0,0,1,0,.6,3.3,3.3,0,0,1,0,.6h-1V64h0v.4l-.2.3-.5.6-.6.4-.7.3h-.1v.2h.4v1.7a5.8,5.8,0,0,0,.1,1.3,3,3,0,0,0,.6,1.2l.5.5.6.3.6.2h.3v.2a1.4,1.4,0,0,0,0,.2v1.4c0,.1,0,.1,0,.2h.1l.3.2.2.2Z"/></svg>