<?xml version="1.0" encoding="utf-8"?>
<!-- Generator: Adobe Illustrator 26.0.3, SVG Export Plug-In . SVG Version: 6.00 Build 0)  -->
<svg version="1.0" id="katman_1" xmlns="http://www.w3.org/2000/svg" xmlns:xlink="http://www.w3.org/1999/xlink" x="0px" y="0px"
	 viewBox="0 0 240 159.8" style="enable-background:new 0 0 240 159.8;" xml:space="preserve">
<style type="text/css">
	.st0{clip-path:url(#SVGID_00000022533767858303775870000000325993298435743130_);}
	.st1{fill:url(#SVGID_00000137103942241960432810000010383449534921662363_);}
	.st2{fill:url(#SVGID_00000138541718325699266100000012903221770070744458_);}
	.st3{fill:url(#SVGID_00000123440403643313179270000010951800157200545195_);}
	.st4{fill:url(#SVGID_00000159437216613752121670000008393214409370735762_);}
	.st5{fill:url(#SVGID_00000137093710077703927810000004213915176069426345_);}
	.st6{fill:url(#SVGID_00000079474598396400923410000001636486003200781992_);}
	.st7{fill:url(#SVGID_00000164476948689319210900000014898341038219669670_);}
	.st8{fill:url(#SVGID_00000132068058031281085210000008933693722185003175_);}
	.st9{fill:url(#SVGID_00000159456702634477099100000005163965044821351052_);}
	.st10{fill:url(#SVGID_00000124880675429643953340000002976385875298553507_);}
	.st11{fill:url(#SVGID_00000004523171757667390980000003362756969814467495_);}
	.st12{fill:url(#SVGID_00000004521721060511372600000015082543813555037826_);}
	.st13{fill:url(#SVGID_00000160164277978186595310000010763462807114717841_);}
	.st14{fill:url(#SVGID_00000047743130861590008280000005126874109570696085_);}
	.st15{fill:url(#SVGID_00000122717938368135589800000007907513506116788918_);}
	.st16{fill:url(#SVGID_00000140736944262296041920000006260735821174001583_);}
	.st17{fill:url(#SVGID_00000119808803274947087800000000826294856581663148_);}
	.st18{fill:url(#SVGID_00000142881373158933721290000015996595815542548159_);}
	.st19{fill:url(#SVGID_00000169545096023458042680000016285850285690600607_);}
	.st20{fill:url(#SVGID_00000121247660311116831770000004238830389471196859_);}
	.st21{fill:url(#SVGID_00000093146090066073167500000008995088206567928967_);}
</style>
<g>
	<defs>
		<rect id="SVGID_1_" x="51" y="25.4" width="138" height="109"/>
	</defs>
	<clipPath id="SVGID_00000182497351303646763720000014164022134164900274_">
		<use xlink:href="#SVGID_1_"  style="overflow:visible;"/>
	</clipPath>
	<g style="clip-path:url(#SVGID_00000182497351303646763720000014164022134164900274_);">
		<path d="M54.2,131.2v-10.9c-0.5-0.1-1-0.2-1.6-0.1c-0.5,0-1.1,0-1.6,0.1v13.8h8.8c0.1-0.5,0.1-1,0.1-1.4c0-0.5-0.1-1-0.1-1.4
			L54.2,131.2L54.2,131.2z M62.1,120.2V134h3.2v-13.8c-0.5-0.1-1-0.2-1.6-0.1C63.1,120.1,62.6,120.1,62.1,120.2L62.1,120.2z
			 M75.8,127c1.2-0.5,1.9-1.7,1.8-3c0-2.5-1.6-4-5.5-4c-1.5,0-3,0.1-4.5,0.4V134c1.5,0.2,3,0.4,4.5,0.4c4.3,0,6-1.7,6-4.2
			C78.3,128.7,77.3,127.4,75.8,127z M70.9,122.7h1.5c1.4,0,2.1,0.6,2.1,1.5c0,0.9-0.5,1.7-1.9,1.7h-1.7L70.9,122.7L70.9,122.7z
			 M72.6,131.8h-1.7v-3.5h1.8c1.6,0,2.3,0.7,2.3,1.7C75,131.2,74.2,131.8,72.6,131.8z M82.7,131.2v-2.7h5.3c0.1-0.5,0.2-1,0.1-1.4
			c0-0.5,0-0.9-0.1-1.4h-5.3v-2.5h5.9c0.1-0.4,0.2-0.9,0.2-1.4c0-0.5-0.1-1-0.2-1.4h-9.1v13.8h9.3c0.1-0.5,0.2-1,0.1-1.4
			c0-0.5,0-1-0.1-1.4L82.7,131.2L82.7,131.2z M101.5,124.4c0-2.7-1.7-4.5-5.9-4.5c-1.5,0-3.1,0.2-4.6,0.5V134h3.2v-4.8H96l2.8,4.8
			h0.8c0.9,0,1.8-0.1,2.7-0.2l-3.2-5.4C100.6,127.8,101.6,126.2,101.5,124.4L101.5,124.4z M95.9,126.6h-1.7v-3.8h1.7
			c1.6,0,2.4,0.7,2.4,1.9C98.3,125.8,97.6,126.6,95.9,126.6z M113.6,121.6c0-0.5,0-0.9-0.1-1.4h-11c-0.1,0.5-0.2,1-0.1,1.4
			c0,0.5,0,0.9,0.1,1.4h3.9v11l1.6,0.1l1.7-0.1v-11h3.9C113.6,122.6,113.6,122.1,113.6,121.6L113.6,121.6z M118.3,120.1
			c-0.6,0-1.1,0-1.7,0.1l-5.1,13.7c0.6,0.2,1.1,0.2,1.7,0.2h1.4l3.1-8.6l0.4-1.4l0.4,1.4l1.2,3.2h-2c-0.2,0.4-0.4,0.9-0.6,1.4
			c-0.1,0.4-0.2,0.9-0.3,1.3h3.8l1,2.7h1.1c0.7,0,1.4-0.1,2.1-0.2l-5.1-13.7C119.4,120.1,118.9,120.1,118.3,120.1L118.3,120.1z
			 M130.6,119.9c-1.5,0-2.9,0.1-4.4,0.3V134c1.5,0.2,3,0.3,4.5,0.3c4.7,0,7.8-2.7,7.8-7.3C138.5,122.4,135.7,119.9,130.6,119.9z
			 M130.9,131.3h-1.5V123h1.4c2.7,0,4.2,1.6,4.2,4.1C135,129.6,133.5,131.3,130.9,131.3z M146.8,119.7c-4.2,0-7.2,3-7.2,7.4
			c0,4.3,3,7.3,7.2,7.3c3.8,0.1,7.1-2.9,7.2-6.8v-0.5C154,122.7,151,119.7,146.8,119.7L146.8,119.7z M146.8,131.4
			c-2.3,0-3.7-1.7-3.7-4.3c0-2.6,1.4-4.3,3.7-4.3c2.3,0,3.7,1.7,3.7,4.3C150.6,129.8,149.1,131.4,146.8,131.4z M165.7,124.4
			c0-2.7-1.7-4.5-5.9-4.5c-1.5,0-3.1,0.2-4.6,0.5V134h3.2v-4.8h1.7l2.9,4.8h0.8c0.9,0,1.8-0.1,2.7-0.2l-3.2-5.4
			C164.8,127.7,165.7,126.1,165.7,124.4L165.7,124.4z M160.1,126.6h-1.7v-3.8h1.7c1.6,0,2.3,0.7,2.3,1.9
			C162.4,125.8,161.7,126.6,160.1,126.6z M170.9,131.2v-2.7h5.3c0.1-0.5,0.1-1,0.1-1.4c0-0.5-0.1-0.9-0.1-1.4h-5.3v-2.5h5.9
			c0.1-0.4,0.2-0.9,0.1-1.4c0-0.5,0-1-0.1-1.4h-9.1v13.8h9.3c0.1-0.5,0.1-1,0.1-1.4c0-0.5-0.1-1-0.1-1.4L170.9,131.2L170.9,131.2z
			 M184.6,125.5c-2.4-0.7-2.7-0.9-2.7-1.6c0-0.7,0.6-1.2,1.9-1.2c1.3,0,2.5,0.4,3.5,1.1c0.9-0.6,1.4-1.6,1.4-2.6
			c-1.4-1-3.1-1.5-4.7-1.4c-3.2,0-5.3,1.7-5.3,4.3s2,3.7,4.3,4.2c2.3,0.5,2.8,1.1,2.8,1.7c0,0.7-0.6,1.3-2.2,1.3
			c-1.4,0-2.8-0.5-4-1.4c-0.9,0.6-1.4,1.6-1.4,2.6c0.9,0.8,2.6,1.7,5.3,1.7c2.7,0,5.4-1.7,5.3-4.6
			C188.9,126.7,187.2,126.2,184.6,125.5z M101,105.5c-0.2-0.2-0.4-0.4-0.7-0.5c-0.9-0.4-1.9-0.2-2.6,0.4c-0.2,0.2-0.4,0.5-0.5,0.8
			c-0.1,0.3-0.1,0.6-0.1,0.9v5.3c0,0.4,0.1,0.8,0.2,1.2c0.1,0.3,0.3,0.5,0.6,0.7c0.2,0.2,0.5,0.3,0.7,0.4l0.9,0.1
			c0.3,0,0.6-0.1,0.9-0.2c0.3-0.1,0.5-0.3,0.7-0.5c0.2-0.2,0.4-0.5,0.5-0.7c0.1-0.3,0.1-0.6,0.1-0.9v-0.6l-0.1-0.1h-1.3
			c-0.1,0-0.1,0.1-0.1,0.1v0.4c0,0.2,0,0.4-0.1,0.4c0,0.1-0.1,0.2-0.1,0.3l-0.3,0.1h-0.2c-0.3,0-0.5-0.1-0.6-0.2
			c-0.1-0.2-0.2-0.4-0.1-0.7v-4.9c0-0.2,0-0.5,0.1-0.7c0.1-0.2,0.3-0.3,0.6-0.3c0.2,0,0.4,0.1,0.5,0.3c0.2,0.2,0.2,0.4,0.2,0.6v0.5
			h1.5v-0.6c0-0.3-0.1-0.6-0.1-0.9C101.4,105.9,101.2,105.7,101,105.5z M106.8,105.4c-0.2-0.2-0.5-0.4-0.8-0.5
			c-0.6-0.1-1.2-0.1-1.7,0l-0.7,0.5c-0.2,0.2-0.5,0.4-0.6,0.7c-0.1,0.3-0.2,0.7-0.2,1.1v5.1c0,0.4,0.1,0.7,0.2,1.1
			c0.1,0.3,0.3,0.6,0.6,0.7l0.7,0.5l0.9,0.1l0.9-0.1c0.3-0.1,0.6-0.3,0.8-0.5c0.2-0.2,0.4-0.4,0.6-0.7c0.1-0.3,0.2-0.7,0.1-1.1v-5.1
			C107.6,106.5,107.3,105.8,106.8,105.4z M106,112.3c0,0.2-0.1,0.5-0.3,0.7c-0.3,0.3-0.8,0.3-1.1,0c-0.2-0.2-0.2-0.4-0.2-0.7v-5.1
			c0-0.2,0.1-0.5,0.2-0.7c0.3-0.3,0.8-0.3,1.1,0c0.2,0.2,0.3,0.4,0.3,0.7V112.3z M113.7,104.8h-1.3c-0.1,0-0.1,0.1-0.1,0.1v4.8
			c0,0.1-0.1,0.1-0.1,0l-1.7-4.8l-0.1-0.1h-1.2c-0.1,0-0.1,0.1-0.1,0.1v9.6c0,0.1,0.1,0.1,0.1,0.1h1.3l0.1-0.1v-4.8
			c0-0.1,0.1-0.1,0.1,0l1.7,4.8h1.4l0.1-0.1v-9.5L113.7,104.8z M121.5,104.8h-1.3v0.1l-1.6,4.6c0,0.1-0.1,0.1-0.1,0l-1.6-4.6
			c-0.1-0.1-0.1-0.1-0.1-0.1h-1.4c-0.1,0-0.1,0.1-0.1,0.1v9.6c0,0.1,0,0.1,0.1,0.1h1.4c0.1,0,0.1-0.1,0.1-0.1v-4.7
			c0-0.1,0.1-0.1,0.2-0.1c0,0,0,0,0,0l1,3.1h0.9l1-3.1c0-0.1,0.1-0.1,0.1,0.1v4.7c0,0.1,0.1,0.1,0.1,0.1h1.3l0.1-0.1v-9.6
			L121.5,104.8L121.5,104.8z M127.2,104.8h-4c-0.1,0-0.1,0.1-0.1,0.1v9.6c0,0.1,0,0.1,0.1,0.1h4c0.1,0,0.1-0.1,0.1-0.1v-1.3
			c0-0.1-0.1-0.1-0.1-0.1h-2.6v-2.5h2.2l0.1-0.1v-1.3c0-0.1-0.1-0.1-0.1-0.1h-2.2v-2.5h2.6c0.1,0,0.1-0.1,0.1-0.1v-1.2L127.2,104.8z
			 M132.4,105.6c-0.2-0.2-0.5-0.4-0.8-0.6c-0.4-0.2-0.8-0.2-1.1-0.2h-2l-0.1,0.1v9.6l0.1,0.1h1.8c0.7,0.1,1.5-0.2,2-0.7
			c0.5-0.6,0.7-1.3,0.6-2v-0.5c0-0.4-0.1-0.8-0.2-1.2c-0.1-0.3-0.3-0.5-0.6-0.7l0.2-0.2l0.4-0.4c0.1-0.2,0.1-0.3,0.1-0.5
			c0.1-0.2,0.1-0.5,0.1-0.7v-0.3c0-0.3,0-0.6-0.1-0.9C132.8,106.1,132.7,105.8,132.4,105.6z M131.5,112.2c0,0.2-0.1,0.3-0.1,0.4
			c-0.1,0.1-0.2,0.2-0.3,0.3l-0.6,0.1H130v-2.7c0-0.1,0-0.1,0.1-0.1h0.4l0.6,0.1c0.1,0,0.2,0.1,0.3,0.2c0.1,0.1,0.2,0.3,0.1,0.4
			c0,0.1,0.1,0.4,0.1,0.6C131.6,111.8,131.5,112,131.5,112.2L131.5,112.2z M131.4,108.5c-0.2,0.2-0.6,0.3-0.9,0.3H130v-2.3h0.4
			c0.4,0,0.7,0.1,0.9,0.3c0.2,0.3,0.3,0.6,0.3,0.9C131.6,108,131.5,108.2,131.4,108.5z M138.1,105.4c-0.2-0.2-0.5-0.4-0.8-0.5
			c-0.5-0.1-1.1-0.1-1.7,0c-0.3,0.1-0.6,0.3-0.8,0.5c-0.2,0.2-0.4,0.5-0.6,0.7c-0.1,0.3-0.2,0.7-0.2,1.1v5.1c0,0.4,0.1,0.7,0.2,1.1
			c0.2,0.3,0.3,0.6,0.6,0.8l0.8,0.4l0.8,0.1l0.9-0.1l0.8-0.4c0.2-0.2,0.4-0.5,0.6-0.8c0.2-0.3,0.2-0.7,0.2-1.1v-5.1
			c0-0.4-0.1-0.7-0.2-1.1C138.6,105.8,138.4,105.6,138.1,105.4L138.1,105.4z M137.3,112.3c0,0.2-0.1,0.5-0.2,0.7
			c-0.2,0.2-0.4,0.2-0.6,0.2c-0.2,0-0.4-0.1-0.6-0.2c-0.2-0.2-0.2-0.4-0.2-0.7v-5.1c0-0.2,0.1-0.5,0.2-0.7c0.2-0.1,0.4-0.2,0.6-0.2
			c0.2,0,0.5,0.1,0.6,0.2c0.2,0.2,0.2,0.4,0.2,0.7V112.3z M144.2,113.1h-2.6v-8.1l-0.1-0.1h-1.3c-0.1,0-0.1,0.1-0.1,0.1v9.6
			c0,0.1,0.1,0.1,0.1,0.1h4c0.1,0,0.1-0.1,0.1-0.1v-1.3C144.2,113.1,144.2,113.1,144.2,113.1L144.2,113.1z M148.6,108.9H146
			c-0.1,0-0.2,0.1-0.2,0.1v1.3c0,0.1,0.1,0.1,0.2,0.1h2.7c0.1,0,0.1-0.1,0.1-0.1v-1.3C148.8,109,148.7,108.9,148.6,108.9z M94,108.9
			h-2.7c-0.1,0-0.1,0.1-0.1,0.1v1.3c0,0.1,0.1,0.1,0.1,0.1H94c0.1,0,0.1-0.1,0.1-0.1v-1.3C94.2,109,94.1,108.9,94,108.9z"/>
		
			<linearGradient id="SVGID_00000096058708829517195360000015121356163871554993_" gradientUnits="userSpaceOnUse" x1="119.9035" y1="65.9945" x2="119.9035" y2="134.9573" gradientTransform="matrix(1 0 0 -1 0 160.8148)">
			<stop  offset="0" style="stop-color:#E4AC52"/>
			<stop  offset="4.000000e-02" style="stop-color:#4F361C"/>
			<stop  offset="9.000000e-02" style="stop-color:#614726"/>
			<stop  offset="0.44" style="stop-color:#4F361C"/>
			<stop  offset="0.67" style="stop-color:#E4AC52"/>
			<stop  offset="0.83" style="stop-color:#745124"/>
			<stop  offset="0.93" style="stop-color:#4F361C"/>
			<stop  offset="1" style="stop-color:#E4AC52"/>
		</linearGradient>
		<path style="fill:url(#SVGID_00000096058708829517195360000015121356163871554993_);" d="M120.2,81.5v0.4c0,0-0.1,0-0.1-0.1
			l-0.1-0.1c-0.1,0-0.1,0.1-0.1,0.1l-0.3,0.1h-0.4c0.1-0.1,0.4-0.3,0.5-0.4l0.2-0.2h0.1C120.1,81.4,120.2,81.4,120.2,81.5z
			 M115.8,94.8l0.4-0.4h0.1c0.1,0,0.1-0.1,0.1-0.1v-0.4l0.4-0.9v-0.6h0.1l0.8-0.2c1-0.5,1.7-1.5,1.6-2.7v-2.1l0.1-0.1h0.3
			c-0.1-0.1-0.1-0.1-0.1-0.1V87c-1-0.1-1.7-0.9-1.9-1.8l-0.1-0.2h-0.6c0,0.1,0,0.1-0.1,0.1h-0.2c-0.1,0-0.1-0.4-0.1-0.7
			s0.1-0.7,0.1-0.7h0.2c0.1,0,0.1,0,0.1,0.1h0.4c0,0.1,0,0.1,0.1,0.1h0.1c0-0.1,0.1-0.3,0.1-0.4c0-0.1,0.1,0,0.1-0.1
			c0.3-0.7,0.8-1.2,1.4-1.5c-0.1,0,0-0.1,0.1-0.1l0.2-0.2c0-0.1,0.1-0.2,0.3-0.3v-0.4c0.1-0.2,0.1-0.3,0.1-0.5h-0.1
			c-0.1,0-0.1,0.1-0.2,0.3v0.1c0,0.1,0,0.1-0.1,0.1s-0.1-0.2,0-0.4l0.2-0.4l0.3-0.1h0.1c0-0.1-0.1-0.1-0.1-0.1
			c0-0.1,0.1-0.1,0.1-0.1c0.1,0,0.1,0.1,0.1,0.1c0,0.1,0,0.1-0.1,0.1h0.2c0.2,0.1,0.4,0,0.5-0.1c-0.2,0.1-0.4,0.1-0.6,0.1v0.1
			c-0.1,0.1-0.1,0.2-0.1,0.4c0,0.1,0,0.1,0.1,0.1c0.1,0.1,0.1,0.4,0.1,0.4v0.4h0.1c0.9,0.1,1.7,0.8,1.9,1.7h0.1
			c0.1,0.1,0.1,0.3,0.1,0.4h0.1v-0.1h0.4c0-0.1,0-0.1,0.1-0.1h0.2c0.1,0,0.1,0.3,0.1,0.7s0,0.7-0.1,0.7h-0.2c-0.1,0-0.1-0.1-0.1-0.1
			h-0.4c0,0-0.1,0-0.1-0.1h-0.1l-0.1,0.2c-0.2,0.9-1,1.7-1.9,1.8v0.1c0,0.1,0,0.1-0.1,0.1h0.3l0.1,0.1v2c-0.1,1.1,0.5,2.2,1.6,2.7
			l0.8,0.2h0.1v0.4l0.4,0.9v0.4c0,0.1,0.1,0.1,0.1,0.1h0.1l0.4,0.4h2c-3.8-12-2.8-60-2.7-68.7c-2.3-0.2-4.7,0.1-6.9,0.7
			c0.1,8.7,1,56.7-2.7,68.7L115.8,94.8L115.8,94.8z"/>
		
			<linearGradient id="SVGID_00000173158316067792970380000012937802500670094512_" gradientUnits="userSpaceOnUse" x1="117.1645" y1="111.0848" x2="117.1645" y2="130.986" gradientTransform="matrix(1 0 0 -1 0 160.8148)">
			<stop  offset="0.25" style="stop-color:#A57531"/>
			<stop  offset="0.79" style="stop-color:#FDE489"/>
			<stop  offset="1" style="stop-color:#745124"/>
		</linearGradient>
		<path style="fill:url(#SVGID_00000173158316067792970380000012937802500670094512_);" d="M117.3,49.7c-0.1-0.3-0.1-0.6-0.1-0.9
			c0-0.5-0.1-1.3-0.1-2.2c0-0.9-0.1-2-0.1-3.2V32.9c0-0.9,0.1-1.7,0.1-2.2c0,0.6,0,1.3,0.1,2.2v3.2c0.1,1.2,0.1,2.5,0.1,3.7v6.8
			c0,0.9-0.1,1.7-0.1,2.2L117.3,49.7L117.3,49.7z"/>
		
			<linearGradient id="SVGID_00000045612812291903051270000013970143934840504252_" gradientUnits="userSpaceOnUse" x1="115.8045" y1="66.671" x2="115.8045" y2="96.3236" gradientTransform="matrix(1 0 0 -1 0 160.8148)">
			<stop  offset="0.1" style="stop-color:#4F361C"/>
			<stop  offset="0.29" style="stop-color:#FDE489"/>
			<stop  offset="0.5" style="stop-color:#A57531"/>
			<stop  offset="0.67" style="stop-color:#E4AC52"/>
			<stop  offset="0.84" style="stop-color:#745124"/>
		</linearGradient>
		<path style="fill:url(#SVGID_00000045612812291903051270000013970143934840504252_);" d="M114.5,94.1l0.3-1.2
			c0.1-0.4,0.1-0.9,0.3-1.4c0.1-0.6,0.1-1.2,0.2-1.9c0.1-0.7,0.2-1.5,0.3-2.2c0.1-0.8,0.1-1.6,0.3-2.5l0.2-2.7
			c0.1-0.9,0.1-1.9,0.1-2.8c0-0.9,0.3-3.7,0.4-5.4c0.1-1.7,0.1-3.3,0.2-4.8c0.1-2.7,0.2-4.6,0.2-4.6v1.3c0,0.8,0,2-0.1,3.4
			c-0.1,1.4,0,3-0.1,4.7c-0.1,1.7-0.2,3.6-0.3,5.5l-0.2,2.7c-0.1,0.9-0.1,1.8-0.3,2.7c-0.1,0.9-0.1,1.7-0.3,2.5
			c-0.1,0.8-0.2,1.5-0.3,2.2c-0.1,0.7-0.2,1.4-0.4,1.9c-0.1,0.5-0.2,1.1-0.3,1.4s-0.2,0.7-0.2,0.9L114.5,94.1L114.5,94.1z"/>
		
			<linearGradient id="SVGID_00000065062299115502653360000006149693787350218121_" gradientUnits="userSpaceOnUse" x1="124.188" y1="66.671" x2="124.188" y2="96.3236" gradientTransform="matrix(1 0 0 -1 0 160.8148)">
			<stop  offset="0.1" style="stop-color:#4F361C"/>
			<stop  offset="0.31" style="stop-color:#A57531"/>
			<stop  offset="0.61" style="stop-color:#FDE489"/>
			<stop  offset="0.81" style="stop-color:#E4AC52"/>
			<stop  offset="0.97" style="stop-color:#745124"/>
		</linearGradient>
		<path style="fill:url(#SVGID_00000065062299115502653360000006149693787350218121_);" d="M123,64.5c0,0,0.1,1.9,0.2,4.6
			c0.1,1.4,0.2,3,0.2,4.8c0.1,1.7,0.2,3.6,0.4,5.4s0.1,1.9,0.1,2.8l0.2,2.7c0.1,0.9,0.2,1.7,0.3,2.5c0.1,0.8,0.1,1.6,0.2,2.2
			c0.1,0.7,0.2,1.3,0.3,1.9c0.1,0.6,0.2,1,0.3,1.4l0.2,1.2v-0.3c-0.1-0.3-0.2-0.6-0.2-0.9c-0.1-0.4-0.2-0.9-0.3-1.4
			c-0.2-0.6-0.3-1.2-0.4-1.9c-0.1-0.7-0.2-1.4-0.3-2.2c-0.1-0.8-0.2-1.7-0.3-2.5c-0.1-0.9-0.2-1.7-0.3-2.7l-0.2-2.7
			c-0.1-1.9-0.2-3.8-0.3-5.5c-0.1-1.7-0.1-3.3-0.1-4.7L123,64.5L123,64.5L123,64.5z"/>
		
			<linearGradient id="SVGID_00000000219190619071983540000014053070879013917357_" gradientUnits="userSpaceOnUse" x1="122.801" y1="111.0942" x2="122.801" y2="131.0196" gradientTransform="matrix(1 0 0 -1 0 160.8148)">
			<stop  offset="0.12" style="stop-color:#A57531"/>
			<stop  offset="0.49" style="stop-color:#FDE489"/>
			<stop  offset="0.97" style="stop-color:#745124"/>
		</linearGradient>
		<path style="fill:url(#SVGID_00000000219190619071983540000014053070879013917357_);" d="M122.9,29.8v0.9c0,0.6,0.1,1.3,0.1,2.2
			v10.5c-0.1,1.2-0.1,2.2-0.1,3.2c0,0.9-0.1,1.7-0.1,2.2c0,0.3-0.1,0.6-0.1,0.9v-0.9c0-0.5-0.1-1.3-0.1-2.2V36.1
			c0.1-1.2,0.1-2.2,0.1-3.2c0-0.9,0.1-1.7,0.1-2.2C122.8,30.4,122.9,30.1,122.9,29.8L122.9,29.8z"/>
		
			<linearGradient id="SVGID_00000113337169644779724900000012680055316740648104_" gradientUnits="userSpaceOnUse" x1="109.3061" y1="66.0084" x2="109.3061" y2="132.3938" gradientTransform="matrix(1 0 0 -1 0 160.8148)">
			<stop  offset="0" style="stop-color:#745124"/>
			<stop  offset="0.25" style="stop-color:#745124"/>
			<stop  offset="0.5" style="stop-color:#E4AC52"/>
			<stop  offset="0.75" style="stop-color:#745124"/>
			<stop  offset="1" style="stop-color:#E4AC52"/>
		</linearGradient>
		<path style="fill:url(#SVGID_00000113337169644779724900000012680055316740648104_);" d="M104,94.8h6.3
			c3.1-10.3,4.6-21.1,4.5-31.9c0-12.7-1.9-24.5-5.4-34.5h-0.1c-1.4,0.7-2.7,1.6-4,2.5c3.9,9.6,5.9,19.9,5.8,30.3
			C111.1,73.8,108.4,85.4,104,94.8L104,94.8L104,94.8z"/>
		
			<linearGradient id="SVGID_00000047037026664703383300000014934985144046903997_" gradientUnits="userSpaceOnUse" x1="109.1337" y1="66.786" x2="109.1337" y2="131.5195" gradientTransform="matrix(1 0 0 -1 0 160.8148)">
			<stop  offset="0.13" style="stop-color:#4F361C"/>
			<stop  offset="0.67" style="stop-color:#E4AC52"/>
			<stop  offset="0.9" style="stop-color:#4F361C"/>
		</linearGradient>
		<path style="fill:url(#SVGID_00000047037026664703383300000014934985144046903997_);" d="M108.9,29.3c-1.3,0.4-2.5,0.9-3.6,1.7
			l0.2,0.6c3.8,9.4,5.7,19.5,5.6,29.7c0,12.2-2.6,23.5-6.9,32.7h5.4c3-10,4.5-20.5,4.4-30.9C114,50.8,112.3,39,108.9,29.3
			L108.9,29.3z"/>
		
			<linearGradient id="SVGID_00000079464400509525025300000015497512586588674951_" gradientUnits="userSpaceOnUse" x1="111.4848" y1="65.947" x2="111.4848" y2="132.4773" gradientTransform="matrix(1 0 0 -1 0 160.8148)">
			<stop  offset="0" style="stop-color:#FDE489"/>
			<stop  offset="0.11" style="stop-color:#FAE187"/>
			<stop  offset="0.2" style="stop-color:#F0D781"/>
			<stop  offset="0.28" style="stop-color:#DFC676"/>
			<stop  offset="0.36" style="stop-color:#C7AE67"/>
			<stop  offset="0.43" style="stop-color:#A88F54"/>
			<stop  offset="0.5" style="stop-color:#836A3C"/>
			<stop  offset="0.57" style="stop-color:#573E21"/>
			<stop  offset="0.58" style="stop-color:#4F361C"/>
			<stop  offset="0.61" style="stop-color:#5B4223"/>
			<stop  offset="0.65" style="stop-color:#7A6137"/>
			<stop  offset="0.71" style="stop-color:#AC9356"/>
			<stop  offset="0.78" style="stop-color:#F1D881"/>
			<stop  offset="0.79" style="stop-color:#FDE489"/>
			<stop  offset="0.93" style="stop-color:#876E3F"/>
			<stop  offset="1" style="stop-color:#4F361C"/>
		</linearGradient>
		<path style="fill:url(#SVGID_00000079464400509525025300000015497512586588674951_);" d="M110.1,94.7l-0.6-0.7
			c0.2-0.6,0.4-1.3,0.6-2c0.2-0.7,0.4-1.3,0.5-2c0.4-1.3,0.6-2.6,0.9-4l0.2-1l0.2-1c0.1-0.7,0.2-1.3,0.4-2c0.1-0.7,0.4-2.7,0.6-4.1
			c0.4-2.7,0.6-5.4,0.7-8.2c0.1-2.7,0.2-5.4,0.2-8.2c0-0.7,0-1.3-0.1-2v-2.1c0-1.3-0.1-2.7-0.2-4.1c-0.1-1.4-0.2-2.7-0.4-4.1l-0.4-2
			l-0.3-2l-0.3-2l-0.4-2l-0.4-2l-0.4-2l-0.5-2c-0.1-0.7-0.4-1.3-0.5-2c-0.2-0.6-0.4-1.3-0.6-2l-0.7-1.9l0.4-0.9l-0.4,0.9l0.6,1.9
			l0.6,2c0.2,0.7,0.3,1.3,0.6,2c0.1,0.7,0.4,1.3,0.5,2l0.4,2l0.4,2l0.4,2l0.4,2l0.3,2l0.2,2l0.4,4.1c0.1,1.3,0.2,2.7,0.2,4.1v4.1
			c0.1,2.7,0,5.5-0.2,8.2c-0.1,2.7-0.4,5.5-0.8,8.2c-0.1,1.3-0.4,2.7-0.6,4.1c-0.3,1.4-0.2,1.3-0.4,2l-0.2,1l-0.2,0.9l-0.3,2
			c-0.1,0.7-0.4,1.3-0.5,2c-0.1,0.7-0.4,1.3-0.6,2c-0.2,0.6-0.4,1.3-0.6,2L110.1,94.7L110.1,94.7z"/>
		
			<linearGradient id="SVGID_00000183929464307221551790000004376648313592982434_" gradientUnits="userSpaceOnUse" x1="101.0775" y1="66.0084" x2="101.0775" y2="127.3956" gradientTransform="matrix(1 0 0 -1 0 160.8148)">
			<stop  offset="0" style="stop-color:#4F361C"/>
			<stop  offset="0.25" style="stop-color:#745124"/>
			<stop  offset="0.58" style="stop-color:#E4AC52"/>
			<stop  offset="0.88" style="stop-color:#745124"/>
			<stop  offset="1" style="stop-color:#E4AC52"/>
		</linearGradient>
		<path style="fill:url(#SVGID_00000183929464307221551790000004376648313592982434_);" d="M92.9,94.8h7c5.9-8.7,9.5-20.3,9.5-33.2
			c0.1-9.8-2.2-19.5-6.5-28.2h-0.1c-0.8,0.8-1.5,1.7-2.2,2.6c4.2,7.4,6.4,15.8,6.4,24.4c0,13.8-4.8,28.2-14.2,34.2
			C92.8,94.7,92.8,94.8,92.9,94.8L92.9,94.8z"/>
		
			<linearGradient id="SVGID_00000163764906044114309950000012458486984945739138_" gradientUnits="userSpaceOnUse" x1="101.1838" y1="66.7999" x2="101.1838" y2="126.3125" gradientTransform="matrix(1 0 0 -1 0 160.8148)">
			<stop  offset="0.25" style="stop-color:#4B331A"/>
			<stop  offset="0.5" style="stop-color:#A57531"/>
			<stop  offset="0.75" style="stop-color:#4F361C"/>
		</linearGradient>
		<path style="fill:url(#SVGID_00000163764906044114309950000012458486984945739138_);" d="M102.5,34.5c-0.7,0.4-1.4,1-1.9,1.6
			l0.2,0.4c4.1,7.3,6.2,15.6,6.2,24c0,13.3-4.5,27.1-13.2,33.5h5.7c5.6-8.4,9.1-19.6,9.1-32C108.6,51.9,106.5,42.2,102.5,34.5
			L102.5,34.5z"/>
		
			<linearGradient id="SVGID_00000078736633464590189930000011233616696406149539_" gradientUnits="userSpaceOnUse" x1="104.1145" y1="65.9806" x2="104.1145" y2="126.3791" gradientTransform="matrix(1 0 0 -1 0 160.8148)">
			<stop  offset="0" style="stop-color:#4F361C"/>
			<stop  offset="7.000000e-02" style="stop-color:#765D34"/>
			<stop  offset="0.18" style="stop-color:#A68D52"/>
			<stop  offset="0.27" style="stop-color:#CCB36A"/>
			<stop  offset="0.36" style="stop-color:#E7CE7B"/>
			<stop  offset="0.44" style="stop-color:#F7DE85"/>
			<stop  offset="0.5" style="stop-color:#FDE489"/>
			<stop  offset="0.6" style="stop-color:#FAE187"/>
			<stop  offset="0.67" style="stop-color:#F0D781"/>
			<stop  offset="0.74" style="stop-color:#DFC676"/>
			<stop  offset="0.81" style="stop-color:#C7AE67"/>
			<stop  offset="0.87" style="stop-color:#A88F54"/>
			<stop  offset="0.93" style="stop-color:#836A3C"/>
			<stop  offset="0.99" style="stop-color:#573E21"/>
			<stop  offset="1" style="stop-color:#4F361C"/>
		</linearGradient>
		<path style="fill:url(#SVGID_00000078736633464590189930000011233616696406149539_);" d="M102.5,34.5c0.6,1.2,1.1,2.3,1.7,3.5
			l0.4,0.9c0.1,0.3,0.2,0.6,0.4,0.9c0.1,0.3,0.2,0.6,0.4,0.9l0.3,0.9c0.4,1.2,0.8,2.5,1.1,3.7l0.4,1.9l0.4,2
			c0.1,0.7,0.2,1.2,0.3,1.9c0.1,0.7,0.2,1.3,0.3,2c0.2,1.3,0.4,2.6,0.4,3.8c0.1,1.3,0.1,2.6,0.1,3.9c0.1,1.3,0.1,2.6,0,3.9
			c-0.1,2.6-0.4,5.2-0.8,7.7c-0.4,2.6-1,5.1-1.8,7.6c-0.7,2.5-1.7,4.9-2.8,7.2c-1.1,2.3-2.4,4.6-3.8,6.7l0.4,0.8L99.5,94
			c1.4-2.2,2.6-4.4,3.7-6.8c1.1-2.3,2-4.8,2.7-7.2c0.7-2.5,1.3-5,1.7-7.6c0.2-1.2,0.4-2.5,0.5-3.8c0.1-1.3,0.2-2.5,0.3-3.8
			s0.1-2.6,0-3.9c-0.1-1.3-0.1-2.6-0.1-3.8s-0.2-2.6-0.4-3.9s-0.2-1.2-0.3-1.9c-0.1-0.7-0.2-1.3-0.4-2l-0.4-1.9l-0.4-1.9
			c-0.3-1.3-0.6-2.5-1.1-3.8l-0.3-0.9c-0.1-0.3-0.2-0.7-0.4-0.9c-0.1-0.3-0.2-0.6-0.3-0.9l-0.4-0.9
			C103.6,36.8,103.1,35.7,102.5,34.5L102.5,34.5z"/>
		
			<linearGradient id="SVGID_00000047035518803431699170000001089536035668705952_" gradientUnits="userSpaceOnUse" x1="119.993" y1="127.6631" x2="119.993" y2="134.374" gradientTransform="matrix(1 0 0 -1 0 160.8148)">
			<stop  offset="0" style="stop-color:#4F361C"/>
			<stop  offset="0.14" style="stop-color:#5B3A1F"/>
			<stop  offset="0.41" style="stop-color:#6E4123"/>
			<stop  offset="0.6" style="stop-color:#754324"/>
			<stop  offset="1" style="stop-color:#4F361C"/>
		</linearGradient>
		<path style="fill:url(#SVGID_00000047035518803431699170000001089536035668705952_);" d="M117.1,26.6v3.2c0,1,0,2.2,0.1,3.3h5.6
			c0-1.2,0.1-2.3,0.1-3.3v-3.2c-1-0.1-1.9-0.2-2.9-0.1C119,26.4,118.1,26.5,117.1,26.6L117.1,26.6z"/>
		
			<linearGradient id="SVGID_00000116204644850174225780000011956333700673489066_" gradientUnits="userSpaceOnUse" x1="119.9725" y1="134.3464" x2="119.9725" y2="66.7166" gradientTransform="matrix(1 0 0 -1 0 160.8148)">
			<stop  offset="6.000000e-02" style="stop-color:#4F361C"/>
			<stop  offset="0.22" style="stop-color:#A57531"/>
			<stop  offset="0.25" style="stop-color:#AD7D36"/>
			<stop  offset="0.29" style="stop-color:#C39545"/>
			<stop  offset="0.35" style="stop-color:#E7BA5C"/>
			<stop  offset="0.38" style="stop-color:#FBCF69"/>
			<stop  offset="0.53" style="stop-color:#FBCF69"/>
			<stop  offset="0.74" style="stop-color:#E4AC52"/>
			<stop  offset="0.75" style="stop-color:#D29E4B"/>
			<stop  offset="0.78" style="stop-color:#A3793B"/>
			<stop  offset="0.81" style="stop-color:#7F5C2D"/>
			<stop  offset="0.83" style="stop-color:#644724"/>
			<stop  offset="0.86" style="stop-color:#553A1E"/>
			<stop  offset="0.88" style="stop-color:#4F361C"/>
			<stop  offset="1" style="stop-color:#734122"/>
		</linearGradient>
		<path style="fill:url(#SVGID_00000116204644850174225780000011956333700673489066_);" d="M114.5,94.1c3.2-11.9,2.7-49.8,2.6-64.3
			v-3.2c1-0.1,1.9-0.2,2.9-0.1c1,0,1.9,0,2.9,0.1v3.2c-0.2,14.5-0.6,52.3,2.5,64.3l-1.7-0.1v-0.1l-0.4-0.9v-0.5h-0.1l-0.8-0.2
			c-1-0.5-1.7-1.5-1.6-2.7v-2.1l-0.1-0.1h-0.3c0.1-0.1,0.1-0.1,0.1-0.1V87c1-0.2,1.7-0.9,1.9-1.8l0.1-0.2h0.1c0,0,0,0.1,0.1,0.1h0.4
			c0,0.1,0,0.1,0.1,0.1h0.2c0.1,0,0.1-0.4,0.1-0.7s0-0.7-0.1-0.7h-0.2c-0.1,0-0.1,0-0.1,0.1h-0.4V84h-0.1c-0.1-0.1-0.1-0.3-0.1-0.4
			h-0.1c-0.3-0.9-1-1.5-1.9-1.7h-0.1v-0.4c0-0.1,0-0.1-0.1-0.4c-0.1-0.3-0.1-0.1-0.1-0.1c0-0.1,0-0.2,0.1-0.4v-0.1
			c0.2,0,0.4-0.1,0.6-0.1c-0.2,0.1-0.3,0.1-0.5,0.1h-0.3c0.1,0,0.1-0.1,0.1-0.1c0-0.1,0-0.1-0.1-0.1c-0.1,0-0.1,0.1-0.1,0.1
			c0,0.1,0.1,0.1,0.1,0.1h-0.1l-0.3,0.1l-0.2,0.4c-0.1,0.1-0.1,0.4,0,0.4s0.1,0,0.1-0.1V81c0.1-0.1,0.1-0.3,0.2-0.3h0.1
			c0,0.2,0,0.3-0.1,0.5v0.4c-0.1,0.1-0.3,0.2-0.3,0.3l-0.2,0.2c-0.1,0.1-0.1,0.1-0.1,0.1c-0.6,0.3-1.2,0.9-1.4,1.5
			c0,0.1,0,0.1-0.1,0.1s-0.1,0.3-0.1,0.4h-0.1c0,0-0.1-0.1-0.1-0.1H117c0-0.1,0-0.1-0.1-0.1h-0.2c-0.1,0-0.1,0.3-0.1,0.7
			s0.1,0.7,0.1,0.7h0.2c0.1,0,0.1-0.1,0.1-0.1h0.6l0.1,0.2c0.2,1,1,1.7,1.9,1.8v0.1c0,0.1,0,0.1,0.1,0.1h-0.3l-0.1,0.1v2
			c0.1,1.1-0.5,2.2-1.6,2.7l-0.8,0.2h-0.1v0.4l-0.4,0.9v0.1L114.5,94.1L114.5,94.1z M120,81.3L120,81.3l-0.3,0.2
			c-0.1,0.1-0.4,0.4-0.5,0.4h0.4l0.3-0.1c0-0.1,0.1-0.1,0.1-0.1l0.1,0.1c0,0,0,0.1,0.1,0.1v-0.4C120.2,81.4,120.1,81.4,120,81.3z"/>
		
			<linearGradient id="SVGID_00000059291332199138615080000001315233282169852323_" gradientUnits="userSpaceOnUse" x1="130.6939" y1="66.0084" x2="130.6939" y2="132.3939" gradientTransform="matrix(1 0 0 -1 0 160.8148)">
			<stop  offset="0" style="stop-color:#745124"/>
			<stop  offset="0.25" style="stop-color:#745124"/>
			<stop  offset="0.5" style="stop-color:#E4AC52"/>
			<stop  offset="0.75" style="stop-color:#745124"/>
			<stop  offset="1" style="stop-color:#E4AC52"/>
		</linearGradient>
		<path style="fill:url(#SVGID_00000059291332199138615080000001315233282169852323_);" d="M136,94.8h-6.3
			c-3.1-10.3-4.6-21.1-4.5-31.9c0-12.7,1.9-24.5,5.4-34.5h0.1c1.4,0.7,2.7,1.6,4,2.5c-3.7,8.7-5.8,19.1-5.8,30.3
			C128.9,73.8,131.5,85.4,136,94.8L136,94.8L136,94.8z"/>
		
			<linearGradient id="SVGID_00000055671400723517096860000001960706712586104233_" gradientUnits="userSpaceOnUse" x1="130.8663" y1="66.786" x2="130.8663" y2="131.5195" gradientTransform="matrix(1 0 0 -1 0 160.8148)">
			<stop  offset="0.13" style="stop-color:#4F361C"/>
			<stop  offset="0.67" style="stop-color:#E4AC52"/>
			<stop  offset="0.9" style="stop-color:#4F361C"/>
		</linearGradient>
		<path style="fill:url(#SVGID_00000055671400723517096860000001960706712586104233_);" d="M131.1,29.3c1.3,0.3,2.5,0.9,3.5,1.7
			l-0.2,0.6c-3.7,9.4-5.6,19.5-5.5,29.7c0,12.2,2.5,23.5,6.9,32.7h-5.4c-3-10-4.5-20.5-4.4-30.9C126,50.8,127.7,39,131.1,29.3
			L131.1,29.3z"/>
		
			<linearGradient id="SVGID_00000091700990390987138660000016715890297379383427_" gradientUnits="userSpaceOnUse" x1="128.398" y1="65.9472" x2="128.398" y2="132.4775" gradientTransform="matrix(1 0 0 -1 0 160.8148)">
			<stop  offset="0" style="stop-color:#FDE489"/>
			<stop  offset="0.11" style="stop-color:#FAE187"/>
			<stop  offset="0.2" style="stop-color:#F0D781"/>
			<stop  offset="0.28" style="stop-color:#DFC676"/>
			<stop  offset="0.36" style="stop-color:#C7AE67"/>
			<stop  offset="0.43" style="stop-color:#A88F54"/>
			<stop  offset="0.5" style="stop-color:#836A3C"/>
			<stop  offset="0.57" style="stop-color:#573E21"/>
			<stop  offset="0.58" style="stop-color:#4F361C"/>
			<stop  offset="0.61" style="stop-color:#5B4223"/>
			<stop  offset="0.65" style="stop-color:#7A6137"/>
			<stop  offset="0.71" style="stop-color:#AC9356"/>
			<stop  offset="0.78" style="stop-color:#F1D881"/>
			<stop  offset="0.79" style="stop-color:#FDE489"/>
			<stop  offset="0.93" style="stop-color:#876E3F"/>
			<stop  offset="1" style="stop-color:#4F361C"/>
		</linearGradient>
		<path style="fill:url(#SVGID_00000091700990390987138660000016715890297379383427_);" d="M129.8,94.7l0.6-0.7
			c-0.1-0.7-0.4-1.3-0.5-2c-0.1-0.7-0.4-1.4-0.6-2l-0.9-4l-0.2-1l-0.2-1c-0.1-0.7-0.2-1.3-0.4-2c-0.1-0.7-0.4-2.7-0.6-4.1
			c-0.4-2.7-0.6-5.4-0.8-8.2c-0.1-2.7-0.2-5.4-0.1-8.2c0-0.7,0-1.3,0.1-2v-2.1c0-1.4,0.1-2.7,0.2-4.1c0.1-1.4,0.2-2.7,0.4-4.1l0.3-2
			l0.2-2l0.4-2l0.4-2l0.4-2l0.4-2l0.5-2c0.1-0.7,0.4-1.3,0.5-2c0.1-0.7,0.4-1.3,0.6-2l0.6-2l-0.4-0.9l0.4,0.9l-0.7,1.9
			c-0.1,0.7-0.4,1.3-0.6,2c-0.2,0.7-0.4,1.3-0.6,2c-0.2,0.7-0.4,1.3-0.5,2l-0.4,2l-0.4,2l-0.4,2l-0.4,2l-0.3,2l-0.3,2
			c-0.1,1.4-0.3,2.7-0.4,4.1c-0.1,1.4-0.2,2.7-0.3,4.1v4.1c-0.1,2.7,0,5.5,0.1,8.2s0.4,5.4,0.9,8.2c0.1,1.3,0.4,2.7,0.6,4.1l0.4,2
			l0.2,1l0.2,0.9l0.4,2c0.1,0.7,0.4,1.3,0.5,2c0.1,0.7,0.4,1.3,0.6,2c0.2,0.7,0.4,1.3,0.6,2L129.8,94.7L129.8,94.7z"/>
		
			<linearGradient id="SVGID_00000012447687719822238330000004751703279898465464_" gradientUnits="userSpaceOnUse" x1="138.9176" y1="66.0085" x2="138.9176" y2="127.4061" gradientTransform="matrix(1 0 0 -1 0 160.8148)">
			<stop  offset="0" style="stop-color:#4F361C"/>
			<stop  offset="0.25" style="stop-color:#745124"/>
			<stop  offset="0.58" style="stop-color:#E4AC52"/>
			<stop  offset="0.88" style="stop-color:#745124"/>
			<stop  offset="1" style="stop-color:#E4AC52"/>
		</linearGradient>
		<path style="fill:url(#SVGID_00000012447687719822238330000004751703279898465464_);" d="M147.1,94.8h-7
			c-5.9-8.7-9.5-20.3-9.5-33.2c-0.1-9.8,2.2-19.4,6.5-28.2h0.1c0.8,0.8,1.5,1.7,2.1,2.6h0.1c-4.2,7.4-6.4,15.8-6.4,24.4
			c0,13.8,4.8,28.2,14.1,34.2C147.2,94.7,147.2,94.8,147.1,94.8L147.1,94.8z"/>
		
			<linearGradient id="SVGID_00000085224712332179519820000016040690651938208389_" gradientUnits="userSpaceOnUse" x1="138.7815" y1="66.7999" x2="138.7815" y2="126.3125" gradientTransform="matrix(1 0 0 -1 0 160.8148)">
			<stop  offset="0.25" style="stop-color:#4B331A"/>
			<stop  offset="0.5" style="stop-color:#A57531"/>
			<stop  offset="0.75" style="stop-color:#4F361C"/>
		</linearGradient>
		<path style="fill:url(#SVGID_00000085224712332179519820000016040690651938208389_);" d="M137.5,34.5c0.7,0.4,1.4,1,1.9,1.6
			l-0.3,0.4c-4.1,7.3-6.2,15.6-6.1,24c0,13.3,4.5,27.1,13.2,33.5h-5.7c-5.6-8.4-9.1-19.6-9.1-32C131.4,51.9,133.5,42.2,137.5,34.5
			L137.5,34.5z"/>
		
			<linearGradient id="SVGID_00000011721621637347797180000002662920918275175322_" gradientUnits="userSpaceOnUse" x1="135.8926" y1="65.9806" x2="135.8926" y2="126.3791" gradientTransform="matrix(1 0 0 -1 0 160.8148)">
			<stop  offset="0" style="stop-color:#4F361C"/>
			<stop  offset="7.000000e-02" style="stop-color:#765D34"/>
			<stop  offset="0.18" style="stop-color:#A68D52"/>
			<stop  offset="0.27" style="stop-color:#CCB36A"/>
			<stop  offset="0.36" style="stop-color:#E7CE7B"/>
			<stop  offset="0.44" style="stop-color:#F7DE85"/>
			<stop  offset="0.5" style="stop-color:#FDE489"/>
			<stop  offset="0.6" style="stop-color:#FAE187"/>
			<stop  offset="0.67" style="stop-color:#F0D781"/>
			<stop  offset="0.74" style="stop-color:#DFC676"/>
			<stop  offset="0.81" style="stop-color:#C7AE67"/>
			<stop  offset="0.87" style="stop-color:#A88F54"/>
			<stop  offset="0.93" style="stop-color:#836A3C"/>
			<stop  offset="0.99" style="stop-color:#573E21"/>
			<stop  offset="1" style="stop-color:#4F361C"/>
		</linearGradient>
		<path style="fill:url(#SVGID_00000011721621637347797180000002662920918275175322_);" d="M137.5,34.5c-0.6,1.2-1.1,2.3-1.7,3.5
			l-0.4,0.9c-0.1,0.3-0.2,0.6-0.4,0.9l-0.4,0.9l-0.3,0.9c-0.4,1.2-0.8,2.5-1.1,3.7l-0.4,1.9l-0.4,2c-0.1,0.6-0.2,1.3-0.4,1.9
			c-0.1,0.7-0.2,1.3-0.3,2c-0.1,1.3-0.3,2.5-0.4,3.8c-0.1,1.3-0.1,2.6-0.1,3.9c-0.1,1.3-0.1,2.6,0,3.9c0.1,2.6,0.3,5.2,0.8,7.7
			c0.4,2.6,1,5.1,1.8,7.6c0.7,2.5,1.6,4.9,2.7,7.2c1.1,2.3,2.4,4.6,3.9,6.7l-0.4,0.8l0.4-0.8c-1.4-2.2-2.7-4.4-3.7-6.8
			c-1-2.4-1.9-4.8-2.7-7.2c-0.7-2.5-1.3-5-1.7-7.6c-0.2-1.2-0.4-2.5-0.5-3.8c-0.1-1.3-0.2-2.5-0.3-3.8s-0.1-2.6,0-3.9
			c0.1-1.3,0.1-2.6,0.1-3.8s0.2-2.6,0.4-3.9s0.2-1.2,0.3-1.9s0.2-1.3,0.3-2l0.4-1.9l0.4-1.9c0.3-1.3,0.6-2.5,1.1-3.8l0.3-0.9
			c0.1-0.4,0.2-0.7,0.3-0.9s0.2-0.6,0.4-0.9l0.4-0.9C136.4,36.8,136.9,35.7,137.5,34.5L137.5,34.5z"/>
		
			<linearGradient id="SVGID_00000114776029178000398820000009193040572508823982_" gradientUnits="userSpaceOnUse" x1="115.725" y1="72.6595" x2="119.632" y2="72.6595" gradientTransform="matrix(1 0 0 -1 0 160.8148)">
			<stop  offset="0" style="stop-color:#4F361C"/>
			<stop  offset="0.29" style="stop-color:#FDE489"/>
			<stop  offset="0.5" style="stop-color:#A57531"/>
			<stop  offset="0.67" style="stop-color:#E4AC52"/>
			<stop  offset="0.84" style="stop-color:#745124"/>
		</linearGradient>
		<path style="fill:url(#SVGID_00000114776029178000398820000009193040572508823982_);" d="M119.6,87.1L119.6,87.1l-0.1-0.1
			c-0.2,0-0.5-0.1-0.6-0.2l-0.6-0.4l-0.4-0.6c-0.1-0.1-0.1-0.2-0.1-0.3c-0.1-0.1-0.1-0.2-0.1-0.3V85h-1.1c-0.1-0.2-0.1-0.3-0.1-0.5
			V84c0.1,0,0.1-0.1,0.1-0.1h0.9c0-0.2,0-0.3,0.1-0.4h0.1c0.2-0.7,0.7-1.2,1.4-1.5c-0.7,0.3-1.2,0.8-1.4,1.5h-0.1
			c-0.1,0.1-0.1,0.2-0.1,0.4h-0.9c-0.1,0.1-0.1,0.1-0.1,0.1v1.2h0.9v0.1c0,0.1,0.1,0.2,0.1,0.4l0.2,0.3c0.1,0.2,0.2,0.4,0.4,0.6
			l0.6,0.4l0.6,0.2v0.1h-0.4V89c0,0.4,0,0.8-0.1,1.2c-0.1,0.4-0.2,0.8-0.5,1.1c-0.2,0.3-0.6,0.6-0.9,0.7l-0.5,0.2h-0.4v0.3
			c0,0-0.1,0.1-0.1,0.1l-0.1,0.3v0.4c0,0.1-0.1,0.1-0.1,0.1v0.5h-0.4l-0.2,0.3l0.2-0.3l0.2-0.1h0.1v-0.5c0-0.1,0-0.1,0.1-0.1v-0.1
			l0.1-0.3l0.1-0.2v-0.5h0.4l0.6-0.2c0.4-0.2,0.7-0.4,1-0.7c0.2-0.4,0.4-0.7,0.5-1.2c0.1-0.4,0.1-0.8,0.1-1.2v-1.3h0.4L119.6,87.1
			L119.6,87.1z"/>
		
			<linearGradient id="SVGID_00000036958512309284684780000005323044761830997911_" gradientUnits="userSpaceOnUse" x1="122.3595" y1="65.9905" x2="122.3595" y2="79.311" gradientTransform="matrix(1 0 0 -1 0 160.8148)">
			<stop  offset="0" style="stop-color:#E4AC52"/>
			<stop  offset="0.16" style="stop-color:#745124"/>
			<stop  offset="0.5" style="stop-color:#A57531"/>
			<stop  offset="0.71" style="stop-color:#FDE489"/>
			<stop  offset="0.9" style="stop-color:#4F361C"/>
		</linearGradient>
		<path style="fill:url(#SVGID_00000036958512309284684780000005323044761830997911_);" d="M124,94.5h-0.4v-1.3l-0.1-0.3v-0.4H123
			l-0.6-0.2l-0.5-0.3l-0.4-0.4c-0.2-0.3-0.3-0.7-0.4-1.1c-0.1-0.4-0.1-0.8-0.1-1.2v-2l0.4-0.1l0.6-0.4c0.2-0.2,0.3-0.4,0.4-0.6
			l0.1-0.3c0.1-0.1,0.1-0.2,0.1-0.4v-0.1h0.3c0,0,0,0.1,0.1,0.1h0.6c0-0.1,0-0.1,0.1-0.1v-1.3c-0.1-0.1-0.1-0.1-0.1-0.1H123
			c-0.1,0-0.1,0-0.1,0.1h-0.4v-0.4h-0.1c-0.1-0.2-0.2-0.4-0.3-0.6l-0.5-0.5c-0.4-0.3-0.8-0.5-1.2-0.6h-0.1v0.1h0.1
			c0.5,0.1,0.9,0.3,1.2,0.6l0.4,0.5c0.1,0.2,0.2,0.4,0.3,0.6h0.1c0,0.1,0.1,0.3,0.1,0.4h0.9v0.1c0.1,0.2,0.1,0.3,0.1,0.5
			c0,0.2-0.1,0.4-0.1,0.5v0.1h-1l-0.1,0.2c0,0.1,0,0.2-0.1,0.4c-0.1,0.1-0.1,0.2-0.1,0.3l-0.4,0.6l-0.6,0.4
			c-0.2,0.1-0.4,0.2-0.6,0.2h-0.1v0.1h0.4v1.6c0,0.4,0,0.8,0.1,1.2c0.1,0.4,0.3,0.8,0.5,1.2l0.4,0.4l0.6,0.3l0.6,0.2h0.3v0.1
			c0,0.1,0,0.1,0.1,0.1v0.2l0.1,0.2c0,0.1,0.1,0.2,0.1,0.3v0.1c0,0,0.1,0.1,0.1,0.1v0.5h0.1l0.2,0.1l0.2,0.3L124,94.5L124,94.5z"/>
	</g>
</g>
</svg>
